<svg width="24" height="25" viewBox="0 0 24 25" fill="none" xmlns="http://www.w3.org/2000/svg">
<path d="M6 11.5V6.7C6 5.58 6 5.02 6.218 4.592C6.41 4.215 6.715 3.91 7.092 3.718C7.52 3.5 8.08 3.5 9.2 3.5H14M14 3.5C14.286 3.502 14.466 3.514 14.639 3.555C14.8431 3.60416 15.0381 3.68515 15.217 3.795C15.418 3.918 15.592 4.092 15.938 4.438L19.063 7.563C19.409 7.909 19.581 8.081 19.704 8.283C19.8139 8.46183 19.8949 8.6569 19.944 8.861C19.986 9.034 19.996 9.215 20 9.5M14 3.5V6.3C14 7.42 14 7.98 14.218 8.408C14.4097 8.78431 14.7157 9.09026 15.092 9.282C15.519 9.5 16.079 9.5 17.197 9.5H20M20 9.5V18.304C20 19.422 20 19.981 19.782 20.408C19.5901 20.7842 19.2842 21.0901 18.908 21.282C18.48 21.5 17.92 21.5 16.803 21.5H13M9 14.5L11 16.5M4 21.5V19L11.5 11.5L14 14L6.5 21.5H4Z" stroke="#35907A" stroke-width="1.5" stroke-linecap="round" stroke-linejoin="round"/>
</svg>
