<svg width="128" height="128" viewBox="0 0 128 128" fill="none" xmlns="http://www.w3.org/2000/svg">
<g clip-path="url(#clip0_37_8)">
<path d="M106.667 60.4445H67.5555V21.3334C67.5555 20.3904 67.1809 19.486 66.5141 18.8192C65.8473 18.1524 64.9429 17.7778 63.9999 17.7778C63.057 17.7778 62.1526 18.1524 61.4858 18.8192C60.819 19.486 60.4444 20.3904 60.4444 21.3334V60.4445H21.3333C20.3903 60.4445 19.4859 60.8191 18.8191 61.4859C18.1523 62.1527 17.7777 63.0571 17.7777 64.0001C17.7602 64.4622 17.8419 64.9226 18.0173 65.3505C18.1928 65.7783 18.4579 66.1636 18.7949 66.4803C19.1318 66.7971 19.5327 67.0379 19.9706 67.1866C20.4085 67.3352 20.8731 67.3883 21.3333 67.3423H60.4444V106.667C60.4444 107.61 60.819 108.514 61.4858 109.181C62.1526 109.848 63.057 110.222 63.9999 110.222C64.9429 110.222 65.8473 109.848 66.5141 109.181C67.1809 108.514 67.5555 107.61 67.5555 106.667V67.5556H106.667C107.61 67.5556 108.514 67.181 109.181 66.5142C109.848 65.8474 110.222 64.943 110.222 64.0001C110.222 63.0571 109.848 62.1527 109.181 61.4859C108.514 60.8191 107.61 60.4445 106.667 60.4445Z" fill="#737373"/>
</g>
<defs>
<clipPath id="clip0_37_8">
<rect width="128" height="128" fill="white"/>
</clipPath>
</defs>
</svg>
