<svg width="24" height="25" viewBox="0 0 24 25" fill="none" xmlns="http://www.w3.org/2000/svg">
<path d="M12 14.4L13.9 16.3C14.1 16.4833 14.3377 16.575 14.613 16.575C14.8883 16.575 15.1173 16.4833 15.3 16.3C15.5 16.1 15.6 15.8623 15.6 15.587C15.6 15.3117 15.5 15.0827 15.3 14.9L13.4 13L15.3 11.1C15.5 10.9 15.6 10.6623 15.6 10.387C15.6 10.1117 15.5 9.88267 15.3 9.7C15.1167 9.5 14.8873 9.4 14.612 9.4C14.3367 9.4 14.0993 9.5 13.9 9.7L12 11.6L10.1 9.7C9.91667 9.5 9.68734 9.4 9.412 9.4C9.13667 9.4 8.89934 9.5 8.7 9.7C8.51667 9.88334 8.425 10.1127 8.425 10.388C8.425 10.6633 8.51667 10.9007 8.7 11.1L10.6 13L8.7 14.9C8.51667 15.0833 8.425 15.3127 8.425 15.588C8.425 15.8633 8.51667 16.1007 8.7 16.3C8.9 16.4833 9.13767 16.575 9.413 16.575C9.68834 16.575 9.91734 16.4833 10.1 16.3L12 14.4ZM7 21.5C6.45 21.5 5.979 21.304 5.587 20.912C5.195 20.52 4.99934 20.0493 5 19.5V6.5C4.71667 6.5 4.479 6.404 4.287 6.212C4.095 6.02 3.99934 5.78267 4 5.5C4 5.21667 4.096 4.979 4.288 4.787C4.48 4.595 4.71734 4.49934 5 4.5H9C9 4.21667 9.096 3.979 9.288 3.787C9.48 3.595 9.71734 3.49934 10 3.5H14C14.2833 3.5 14.521 3.596 14.713 3.788C14.905 3.98 15.0007 4.21734 15 4.5H19C19.2833 4.5 19.521 4.596 19.713 4.788C19.905 4.98 20.0007 5.21734 20 5.5C20 5.78334 19.904 6.021 19.712 6.213C19.52 6.405 19.2827 6.50067 19 6.5V19.5C19 20.05 18.804 20.521 18.412 20.913C18.02 21.305 17.5493 21.5007 17 21.5H7Z" fill="#F45353"/>
</svg>
