<svg width="16" height="16" viewBox="0 0 16 16" fill="none" xmlns="http://www.w3.org/2000/svg">
<path d="M8.08618 2.20703C8.46123 1.83209 8.96985 1.62146 9.50018 1.62146C10.0305 1.62146 10.5391 1.83209 10.9142 2.20703L14.7932 6.08603C15.1681 6.46109 15.3788 6.9697 15.3788 7.50003C15.3788 8.03036 15.1681 8.53898 14.7932 8.91403L9.29318 14.414C8.91819 14.7891 8.40957 14.9999 7.87918 15H5.12018C4.58979 14.9999 4.08116 14.7891 3.70618 14.414L1.20618 11.914C0.831236 11.539 0.620605 11.0304 0.620605 10.5C0.620605 9.9697 0.831236 9.46109 1.20618 9.08603L8.08518 2.20703H8.08618ZM8.74618 13.547L3.45318 8.25403L1.91418 9.79303C1.72671 9.98056 1.62139 10.2349 1.62139 10.5C1.62139 10.7652 1.72671 11.0195 1.91418 11.207L4.41418 13.707C4.60167 13.8946 4.85598 14 5.12118 14H7.88018C8.14537 14 8.39969 13.8946 8.58718 13.707L8.74618 13.547Z" fill="white"/>
</svg>
