<svg width="16" height="16" viewBox="0 0 16 16" fill="none" xmlns="http://www.w3.org/2000/svg">
<path d="M14 4.66667V12.6667C14 13.0333 13.8693 13.3473 13.608 13.6087C13.3467 13.87 13.0329 14.0004 12.6667 14H3.33333C2.96667 14 2.65267 13.8693 2.39133 13.608C2.13 13.3467 1.99956 13.0329 2 12.6667V3.33333C2 2.96667 2.13067 2.65267 2.392 2.39133C2.65333 2.13 2.96711 1.99956 3.33333 2H11.3333L14 4.66667ZM8 12C8.55556 12 9.02778 11.8056 9.41667 11.4167C9.80556 11.0278 10 10.5556 10 10C10 9.44445 9.80556 8.97222 9.41667 8.58333C9.02778 8.19445 8.55556 8 8 8C7.44445 8 6.97222 8.19445 6.58333 8.58333C6.19445 8.97222 6 9.44445 6 10C6 10.5556 6.19445 11.0278 6.58333 11.4167C6.97222 11.8056 7.44445 12 8 12ZM4 6.66667H10V4H4V6.66667Z" fill="white"/>
</svg>
