<svg width="16" height="16" viewBox="0 0 16 16" fill="none" xmlns="http://www.w3.org/2000/svg">
<path d="M8.66683 12.6666C8.66683 10.46 10.4602 8.66663 12.6668 8.66663C13.4002 8.66663 14.0802 8.86663 14.6668 9.20663V3.99996C14.6668 3.64634 14.5264 3.3072 14.2763 3.05715C14.0263 2.8071 13.6871 2.66663 13.3335 2.66663H2.66683C1.92683 2.66663 1.3335 3.25996 1.3335 3.99996V12C1.3335 12.3536 1.47397 12.6927 1.72402 12.9428C1.97407 13.1928 2.31321 13.3333 2.66683 13.3333H8.72683C8.6935 13.1133 8.66683 12.8933 8.66683 12.6666ZM2.66683 5.33329V3.99996L8.00016 7.33329L13.3335 3.99996V5.33329L8.00016 8.66663L2.66683 5.33329ZM13.3335 14.6666V13.3333H10.6668V12H13.3335V10.6666L15.3335 12.6666L13.3335 14.6666Z" fill="white"/>
</svg>
